# xmcd
#
# Track frame offsets:
#	150
#	12770
#	29964
#	43963
#	58182
#	76474
#	88200
#	100709
#	116091
#	131901
#	149781
#	166211
#	183504
#
# Disc length: 2610 seconds
#
# Revision: 1
# Processed by: cddbd v1.5.2PL0 Copyright (c) Steve Scherf et al.
# Submitted via: audiograbber 1.83.01
#
DISCID=c40a300d
DTITLE=AUGUSTO CÉSAR - NÃO PRECISA CHORAR
DYEAR=1900
DGENRE=
TTITLE0=NÃO PRECISA CHORAR
TTITLE1=ELA VAI TER QUE DECIDIR
TTITLE2=MÁQUINA DE AMAR
TTITLE3=POR CAUSA DE VOCÊ
TTITLE4=MENINO DE RUA
TTITLE5=SOMBRAS
TTITLE6=É TÃO FÁCIL
TTITLE7=PERTO DOS OLHOS, LONGE DO CORAÇÃO
TTITLE8=NOSSO DESEJO
TTITLE9=O TEMPO PASSOU
TTITLE10=DISFARCE
TTITLE11=ADEUS
TTITLE12=RECORDAÇÕES
EXTD=
EXTT0=
EXTT1=
EXTT2=
EXTT3=
EXTT4=
EXTT5=
EXTT6=
EXTT7=
EXTT8=
EXTT9=
EXTT10=
EXTT11=
EXTT12=
PLAYORDER=
